<svg xmlns="http://www.w3.org/2000/svg" viewBox="0 0 36 36">
  <path d="M36,27c0,2.2-1.8,4-4,4H4c-2.2,0-4-1.8-4-4V9c0-2.2,1.8-4,4-4h28c2.2,0,4,1.8,4,4V27Z" style="fill: #ff4b55;"/>
  <path d="M.6,18H17.4c.3,0,.6-.3,.6-.7V5.7c0-.4-.3-.7-.6-.7H3.6c-2,0-3.6,1.8-3.6,4v8.3c0,.4,.3,.7,.6,.7Z" style="fill: #41479b;"/>
  <path d="M6.596,11.5c0-.664,.269-1.264,.704-1.699l-2.014-.576c-.117-.033-.201,.112-.113,.196l1.507,1.457-2.034,.509c-.118,.029-.118,.197,0,.227l2.034,.509-1.507,1.457c-.087,.085-.004,.23,.113,.196l2.014-.576c-.435-.435-.704-1.036-.704-1.7Z" style="fill: #f5f5f5;"/>
  <path d="M9,9.096c.664,0,1.264,.269,1.699,.704l.576-2.014c.033-.117-.112-.201-.196-.113l-1.457,1.507-.509-2.034c-.029-.118-.197-.118-.227,0l-.509,2.034-1.457-1.507c-.085-.087-.23-.004-.196,.113l.576,2.014c.435-.435,1.036-.704,1.699-.704Z" style="fill: #f5f5f5;"/>
  <path d="M9,13.904c-.664,0-1.264-.269-1.699-.704l-.576,2.014c-.033,.117,.112,.201,.196,.113l1.457-1.507,.509,2.034c.029,.118,.197,.118,.227,0l.509-2.034,1.457,1.507c.085,.087,.23,.004,.196-.113l-.576-2.014c-.435,.435-1.036,.704-1.699,.704Z" style="fill: #f5f5f5;"/>
  <path d="M13.355,11.387l-2.034-.509,1.507-1.457c.087-.085,.004-.23-.113-.196l-2.014,.576c.435,.435,.704,1.036,.704,1.699s-.269,1.264-.704,1.699l2.014,.576c.117,.033,.201-.112,.113-.196l-1.507-1.457,2.034-.509c.118-.029,.118-.197,0-.227Z" style="fill: #f5f5f5;"/>
  <path d="M7.086,11.5c0,1.057,.857,1.914,1.914,1.914s1.914-.857,1.914-1.914-.857-1.914-1.914-1.914-1.914,.857-1.914,1.914Z" style="fill: #f5f5f5;"/>
</svg>
